<svg height="2894" width="720" xmlns="http://www.w3.org/2000/svg">
<rect height="2894" fill="#555" width="720"></rect>
<text fill="#7f7" font-family="Courier New" font-size="12" xml:space="preserve">
<tspan x="10" y="26">27 megabytes installed</tspan>
<tspan x="10" y="42"></tspan>
<tspan x="10" y="58">node_modules</tspan>
<tspan x="10" y="74">└─┬ ember-metrics@0.10.0 </tspan>
<tspan x="10" y="90">  ├─┬ broccoli-funnel@1.2.0 </tspan>
<tspan x="10" y="106">  │ ├── array-equal@1.0.0 </tspan>
<tspan x="10" y="122">  │ ├── blank-object@1.0.2 </tspan>
<tspan x="10" y="138">  │ ├─┬ broccoli-plugin@1.3.0 </tspan>
<tspan x="10" y="154">  │ │ ├─┬ promise-map-series@0.2.3 </tspan>
<tspan x="10" y="170">  │ │ │ └── rsvp@3.5.0 </tspan>
<tspan x="10" y="186">  │ │ └─┬ quick-temp@0.1.8 </tspan>
<tspan x="10" y="202">  │ │   ├── mktemp@0.4.0 </tspan>
<tspan x="10" y="218">  │ │   └─┬ underscore.string@3.3.4 </tspan>
<tspan x="10" y="234">  │ │     ├── sprintf-js@1.0.3 </tspan>
<tspan x="10" y="250">  │ │     └── util-deprecate@1.0.2 </tspan>
<tspan x="10" y="266">  │ ├─┬ debug@2.6.4 </tspan>
<tspan x="10" y="282">  │ │ └── ms@0.7.3 </tspan>
<tspan x="10" y="298">  │ ├── exists-sync@0.0.4 </tspan>
<tspan x="10" y="314">  │ ├── fast-ordered-set@1.0.3 </tspan>
<tspan x="10" y="330">  │ ├─┬ fs-tree-diff@0.5.6 </tspan>
<tspan x="10" y="346">  │ │ ├── heimdalljs-logger@0.1.9 </tspan>
<tspan x="10" y="362">  │ │ └── object-assign@4.1.1 </tspan>
<tspan x="10" y="378">  │ ├─┬ heimdalljs@0.2.4 </tspan>
<tspan x="10" y="394">  │ │ └── rsvp@3.2.1 </tspan>
<tspan x="10" y="410">  │ ├─┬ minimatch@3.0.3 </tspan>
<tspan x="10" y="426">  │ │ └─┬ brace-expansion@1.1.7 </tspan>
<tspan x="10" y="442">  │ │   ├── balanced-match@0.4.2 </tspan>
<tspan x="10" y="458">  │ │   └── concat-map@0.0.1 </tspan>
<tspan x="10" y="474">  │ ├─┬ mkdirp@0.5.1 </tspan>
<tspan x="10" y="490">  │ │ └── minimist@0.0.8 </tspan>
<tspan x="10" y="506">  │ ├── path-posix@1.0.0 </tspan>
<tspan x="10" y="522">  │ ├─┬ rimraf@2.6.1 </tspan>
<tspan x="10" y="538">  │ │ └─┬ glob@7.1.1 </tspan>
<tspan x="10" y="554">  │ │   ├── fs.realpath@1.0.0 </tspan>
<tspan x="10" y="570">  │ │   ├─┬ inflight@1.0.6 </tspan>
<tspan x="10" y="586">  │ │   │ └── wrappy@1.0.2 </tspan>
<tspan x="10" y="602">  │ │   ├── inherits@2.0.3 </tspan>
<tspan x="10" y="618">  │ │   ├── once@1.4.0 </tspan>
<tspan x="10" y="634">  │ │   └── path-is-absolute@1.0.1 </tspan>
<tspan x="10" y="650">  │ ├── symlink-or-copy@1.1.8 </tspan>
<tspan x="10" y="666">  │ └─┬ walk-sync@0.3.1 </tspan>
<tspan x="10" y="682">  │   ├── ensure-posix-path@1.0.2 </tspan>
<tspan x="10" y="698">  │   └── matcher-collection@1.0.4 </tspan>
<tspan x="10" y="714">  ├─┬ ember-cli-babel@5.2.4 </tspan>
<tspan x="10" y="730">  │ ├─┬ broccoli-babel-transpiler@5.6.2 </tspan>
<tspan x="10" y="746">  │ │ ├─┬ babel-core@5.8.38 </tspan>
<tspan x="10" y="762">  │ │ │ ├── babel-plugin-constant-folding@1.0.1 </tspan>
<tspan x="10" y="778">  │ │ │ ├── babel-plugin-dead-code-elimination@1.0.2 </tspan>
<tspan x="10" y="794">  │ │ │ ├── babel-plugin-eval@1.0.1 </tspan>
<tspan x="10" y="810">  │ │ │ ├── babel-plugin-inline-environment-variables@1.0.1 </tspan>
<tspan x="10" y="826">  │ │ │ ├── babel-plugin-jscript@1.0.4 </tspan>
<tspan x="10" y="842">  │ │ │ ├── babel-plugin-member-expression-literals@1.0.1 </tspan>
<tspan x="10" y="858">  │ │ │ ├── babel-plugin-property-literals@1.0.1 </tspan>
<tspan x="10" y="874">  │ │ │ ├── babel-plugin-proto-to-assign@1.0.4 </tspan>
<tspan x="10" y="890">  │ │ │ ├── babel-plugin-react-constant-elements@1.0.3 </tspan>
<tspan x="10" y="906">  │ │ │ ├── babel-plugin-react-display-name@1.0.3 </tspan>
<tspan x="10" y="922">  │ │ │ ├── babel-plugin-remove-console@1.0.1 </tspan>
<tspan x="10" y="938">  │ │ │ ├── babel-plugin-remove-debugger@1.0.1 </tspan>
<tspan x="10" y="954">  │ │ │ ├── babel-plugin-runtime@1.0.7 </tspan>
<tspan x="10" y="970">  │ │ │ ├─┬ babel-plugin-undeclared-variables-check@1.0.2 </tspan>
<tspan x="10" y="986">  │ │ │ │ └── leven@1.0.2 </tspan>
<tspan x="10" y="1002">  │ │ │ ├── babel-plugin-undefined-to-void@1.1.6 </tspan>
<tspan x="10" y="1018">  │ │ │ ├── babylon@5.8.38 </tspan>
<tspan x="10" y="1034">  │ │ │ ├── bluebird@2.11.0 </tspan>
<tspan x="10" y="1050">  │ │ │ ├─┬ chalk@1.1.3 </tspan>
<tspan x="10" y="1066">  │ │ │ │ ├── ansi-styles@2.2.1 </tspan>
<tspan x="10" y="1082">  │ │ │ │ ├── escape-string-regexp@1.0.5 </tspan>
<tspan x="10" y="1098">  │ │ │ │ ├─┬ has-ansi@2.0.0 </tspan>
<tspan x="10" y="1114">  │ │ │ │ │ └── ansi-regex@2.1.1 </tspan>
<tspan x="10" y="1130">  │ │ │ │ ├── strip-ansi@3.0.1 </tspan>
<tspan x="10" y="1146">  │ │ │ │ └── supports-color@2.0.0 </tspan>
<tspan x="10" y="1162">  │ │ │ ├── convert-source-map@1.5.0 </tspan>
<tspan x="10" y="1178">  │ │ │ ├── core-js@1.2.7 </tspan>
<tspan x="10" y="1194">  │ │ │ ├─┬ detect-indent@3.0.1 </tspan>
<tspan x="10" y="1210">  │ │ │ │ ├── get-stdin@4.0.1 </tspan>
<tspan x="10" y="1226">  │ │ │ │ └── minimist@1.2.0 </tspan>
<tspan x="10" y="1242">  │ │ │ ├── esutils@2.0.2 </tspan>
<tspan x="10" y="1258">  │ │ │ ├── fs-readdir-recursive@0.1.2 </tspan>
<tspan x="10" y="1274">  │ │ │ ├── globals@6.4.1 </tspan>
<tspan x="10" y="1290">  │ │ │ ├─┬ home-or-tmp@1.0.0 </tspan>
<tspan x="10" y="1306">  │ │ │ │ ├── os-tmpdir@1.0.2 </tspan>
<tspan x="10" y="1322">  │ │ │ │ └── user-home@1.1.1 </tspan>
<tspan x="10" y="1338">  │ │ │ ├─┬ is-integer@1.0.6 </tspan>
<tspan x="10" y="1354">  │ │ │ │ └─┬ is-finite@1.0.2 </tspan>
<tspan x="10" y="1370">  │ │ │ │   └── number-is-nan@1.0.1 </tspan>
<tspan x="10" y="1386">  │ │ │ ├── js-tokens@1.0.1 </tspan>
<tspan x="10" y="1402">  │ │ │ ├── json5@0.4.0 </tspan>
<tspan x="10" y="1418">  │ │ │ ├── lodash@3.10.1 </tspan>
<tspan x="10" y="1434">  │ │ │ ├── minimatch@2.0.10 </tspan>
<tspan x="10" y="1450">  │ │ │ ├─┬ output-file-sync@1.1.2 </tspan>
<tspan x="10" y="1466">  │ │ │ │ └── graceful-fs@4.1.11 </tspan>
<tspan x="10" y="1482">  │ │ │ ├── path-exists@1.0.0 </tspan>
<tspan x="10" y="1498">  │ │ │ ├── private@0.1.7 </tspan>
<tspan x="10" y="1514">  │ │ │ ├─┬ regenerator@0.8.40 </tspan>
<tspan x="10" y="1530">  │ │ │ │ ├─┬ commoner@0.10.8 </tspan>
<tspan x="10" y="1546">  │ │ │ │ │ ├─┬ commander@2.9.0 </tspan>
<tspan x="10" y="1562">  │ │ │ │ │ │ └── graceful-readlink@1.0.1 </tspan>
<tspan x="10" y="1578">  │ │ │ │ │ ├─┬ detective@4.5.0 </tspan>
<tspan x="10" y="1594">  │ │ │ │ │ │ ├── acorn@4.0.11 </tspan>
<tspan x="10" y="1610">  │ │ │ │ │ │ └── defined@1.0.0 </tspan>
<tspan x="10" y="1626">  │ │ │ │ │ ├── glob@5.0.15 </tspan>
<tspan x="10" y="1642">  │ │ │ │ │ ├── iconv-lite@0.4.16 </tspan>
<tspan x="10" y="1658">  │ │ │ │ │ ├── q@1.5.0 </tspan>
<tspan x="10" y="1674">  │ │ │ │ │ └─┬ recast@0.11.23 </tspan>
<tspan x="10" y="1690">  │ │ │ │ │   ├── ast-types@0.9.6 </tspan>
<tspan x="10" y="1706">  │ │ │ │ │   └── esprima@3.1.3 </tspan>
<tspan x="10" y="1722">  │ │ │ │ ├─┬ defs@1.1.1 </tspan>
<tspan x="10" y="1738">  │ │ │ │ │ ├─┬ alter@0.2.0 </tspan>
<tspan x="10" y="1754">  │ │ │ │ │ │ └── stable@0.1.6 </tspan>
<tspan x="10" y="1770">  │ │ │ │ │ ├── ast-traverse@0.1.1 </tspan>
<tspan x="10" y="1786">  │ │ │ │ │ ├── breakable@1.0.0 </tspan>
<tspan x="10" y="1802">  │ │ │ │ │ ├── simple-fmt@0.1.0 </tspan>
<tspan x="10" y="1818">  │ │ │ │ │ ├── simple-is@0.2.0 </tspan>
<tspan x="10" y="1834">  │ │ │ │ │ ├── stringmap@0.2.2 </tspan>
<tspan x="10" y="1850">  │ │ │ │ │ ├── stringset@0.2.1 </tspan>
<tspan x="10" y="1866">  │ │ │ │ │ ├── tryor@0.1.2 </tspan>
<tspan x="10" y="1882">  │ │ │ │ │ └─┬ yargs@3.27.0 </tspan>
<tspan x="10" y="1898">  │ │ │ │ │   ├── camelcase@1.2.1 </tspan>
<tspan x="10" y="1914">  │ │ │ │ │   ├─┬ cliui@2.1.0 </tspan>
<tspan x="10" y="1930">  │ │ │ │ │   │ ├─┬ center-align@0.1.3 </tspan>
<tspan x="10" y="1946">  │ │ │ │ │   │ │ ├─┬ align-text@0.1.4 </tspan>
<tspan x="10" y="1962">  │ │ │ │ │   │ │ │ ├─┬ kind-of@3.1.0 </tspan>
<tspan x="10" y="1978">  │ │ │ │ │   │ │ │ │ └── is-buffer@1.1.5 </tspan>
<tspan x="10" y="1994">  │ │ │ │ │   │ │ │ ├── longest@1.0.1 </tspan>
<tspan x="10" y="2010">  │ │ │ │ │   │ │ │ └── repeat-string@1.6.1 </tspan>
<tspan x="10" y="2026">  │ │ │ │ │   │ │ └── lazy-cache@1.0.4 </tspan>
<tspan x="10" y="2042">  │ │ │ │ │   │ ├── right-align@0.1.3 </tspan>
<tspan x="10" y="2058">  │ │ │ │ │   │ └── wordwrap@0.0.2 </tspan>
<tspan x="10" y="2074">  │ │ │ │ │   ├── decamelize@1.2.0 </tspan>
<tspan x="10" y="2090">  │ │ │ │ │   ├─┬ os-locale@1.4.0 </tspan>
<tspan x="10" y="2106">  │ │ │ │ │   │ └─┬ lcid@1.0.0 </tspan>
<tspan x="10" y="2122">  │ │ │ │ │   │   └── invert-kv@1.0.0 </tspan>
<tspan x="10" y="2138">  │ │ │ │ │   ├── window-size@0.1.4 </tspan>
<tspan x="10" y="2154">  │ │ │ │ │   └── y18n@3.2.1 </tspan>
<tspan x="10" y="2170">  │ │ │ │ ├── esprima-fb@15001.1001.0-dev-harmony-fb </tspan>
<tspan x="10" y="2186">  │ │ │ │ ├─┬ recast@0.10.33 </tspan>
<tspan x="10" y="2202">  │ │ │ │ │ └── ast-types@0.8.12 </tspan>
<tspan x="10" y="2218">  │ │ │ │ └── through@2.3.8 </tspan>
<tspan x="10" y="2234">  │ │ │ ├─┬ regexpu@1.3.0 </tspan>
<tspan x="10" y="2250">  │ │ │ │ ├── esprima@2.7.3 </tspan>
<tspan x="10" y="2266">  │ │ │ │ ├── regenerate@1.3.2 </tspan>
<tspan x="10" y="2282">  │ │ │ │ ├── regjsgen@0.2.0 </tspan>
<tspan x="10" y="2298">  │ │ │ │ └─┬ regjsparser@0.1.5 </tspan>
<tspan x="10" y="2314">  │ │ │ │   └── jsesc@0.5.0 </tspan>
<tspan x="10" y="2330">  │ │ │ ├── repeating@1.1.3 </tspan>
<tspan x="10" y="2346">  │ │ │ ├── shebang-regex@1.0.0 </tspan>
<tspan x="10" y="2362">  │ │ │ ├── slash@1.0.0 </tspan>
<tspan x="10" y="2378">  │ │ │ ├── source-map@0.5.6 </tspan>
<tspan x="10" y="2394">  │ │ │ ├─┬ source-map-support@0.2.10 </tspan>
<tspan x="10" y="2410">  │ │ │ │ └─┬ source-map@0.1.32 </tspan>
<tspan x="10" y="2426">  │ │ │ │   └── amdefine@1.0.1 </tspan>
<tspan x="10" y="2442">  │ │ │ ├── to-fast-properties@1.0.2 </tspan>
<tspan x="10" y="2458">  │ │ │ ├── trim-right@1.0.1 </tspan>
<tspan x="10" y="2474">  │ │ │ └── try-resolve@1.0.1 </tspan>
<tspan x="10" y="2490">  │ │ ├─┬ broccoli-merge-trees@1.2.4 </tspan>
<tspan x="10" y="2506">  │ │ │ └─┬ can-symlink@1.0.0 </tspan>
<tspan x="10" y="2522">  │ │ │   └── tmp@0.0.28 </tspan>
<tspan x="10" y="2538">  │ │ ├─┬ broccoli-persistent-filter@1.2.13 </tspan>
<tspan x="10" y="2554">  │ │ │ ├─┬ async-disk-cache@1.3.1 </tspan>
<tspan x="10" y="2570">  │ │ │ │ └─┬ istextorbinary@2.1.0 </tspan>
<tspan x="10" y="2586">  │ │ │ │   ├── binaryextensions@2.0.0 </tspan>
<tspan x="10" y="2602">  │ │ │ │   ├── editions@1.3.3 </tspan>
<tspan x="10" y="2618">  │ │ │ │   └── textextensions@2.1.0 </tspan>
<tspan x="10" y="2634">  │ │ │ └─┬ md5-hex@1.3.0 </tspan>
<tspan x="10" y="2650">  │ │ │   └── md5-o-matic@0.1.1 </tspan>
<tspan x="10" y="2666">  │ │ ├── clone@0.2.0 </tspan>
<tspan x="10" y="2682">  │ │ ├─┬ hash-for-dep@1.1.2 </tspan>
<tspan x="10" y="2698">  │ │ │ └─┬ broccoli-kitchen-sink-helpers@0.3.1 </tspan>
<tspan x="10" y="2714">  │ │ │   └── glob@5.0.15 </tspan>
<tspan x="10" y="2730">  │ │ └─┬ json-stable-stringify@1.0.1 </tspan>
<tspan x="10" y="2746">  │ │   └── jsonify@0.0.0 </tspan>
<tspan x="10" y="2762">  │ ├── clone@2.1.1 </tspan>
<tspan x="10" y="2778">  │ ├─┬ ember-cli-version-checker@1.3.1 </tspan>
<tspan x="10" y="2794">  │ │ └── semver@5.3.0 </tspan>
<tspan x="10" y="2810">  │ └─┬ resolve@1.3.3 </tspan>
<tspan x="10" y="2826">  │   └── path-parse@1.0.5 </tspan>
<tspan x="10" y="2842">  ├─┬ ember-getowner-polyfill@1.2.3 </tspan>
<tspan x="10" y="2858">  │ └── ember-factory-for-polyfill@1.1.1 </tspan>
<tspan x="10" y="2874">  └── ember-runtime-enumerable-includes-polyfill@1.0.4</tspan>
</text>
</svg>
